<?xml version="1.0" standalone="no"?>
<!DOCTYPE svg PUBLIC "-//W3C//DTD SVG 20010904//EN"
 "http://www.w3.org/TR/2001/REC-SVG-20010904/DTD/svg10.dtd">
<svg version="1.0" xmlns="http://www.w3.org/2000/svg"
 width="890.000000pt" height="800.000000pt" viewBox="0 0 890.000000 800.000000"
 preserveAspectRatio="xMidYMid meet">

<g transform="translate(0.000000,800.000000) scale(0.100000,-0.100000)"
fill="#000000" stroke="none">
<path d="M3320 6265 l0 -1135 -1135 0 -1135 0 0 -1130 0 -1130 1135 0 1135 0
0 -1135 0 -1135 1130 0 1130 0 2 1133 3 1132 1133 3 1132 2 0 1130 0 1130
-1135 0 -1135 0 0 1135 0 1135 -1130 0 -1130 0 0 -1135z m927 24 c200 -26 347
-159 418 -376 13 -42 25 -59 58 -80 88 -60 98 -120 49 -294 -73 -256 -128
-272 -269 -82 -74 100 -103 165 -103 232 0 52 2 56 54 108 l55 53 -13 44 c-30
99 -108 175 -220 213 -75 25 -207 24 -267 -4 -69 -31 -125 -87 -163 -163 -93
-187 -60 -399 86 -544 133 -132 329 -210 693 -276 360 -64 550 -145 674 -286
240 -273 133 -793 -222 -1079 -98 -79 -249 -156 -364 -184 -122 -31 -113 -40
-113 99 0 96 3 120 14 120 7 0 51 19 97 42 65 32 102 60 164 122 92 92 134
167 165 291 26 100 36 265 21 321 -25 94 -119 175 -270 233 -42 16 -179 61
-306 101 -606 189 -833 339 -900 595 -20 79 -20 271 0 350 59 227 266 411 499
445 75 11 77 11 163 -1z m708 -1654 c49 -51 59 -92 52 -209 -11 -188 -69 -328
-182 -441 -74 -74 -156 -125 -237 -145 l-48 -12 0 -384 0 -384 -59 0 c-32 0
-73 3 -90 6 l-31 7 0 357 0 358 -67 7 c-252 24 -456 84 -641 189 -85 48 -135
83 -300 209 -282 215 -394 264 -720 316 -35 6 -84 20 -109 32 -55 27 -113 83
-113 109 0 20 14 20 1256 20 l1257 0 32 -35z m1535 15 c0 -31 -75 -97 -135
-119 -30 -11 -94 -25 -142 -31 -117 -15 -191 -34 -293 -78 -139 -59 -213 -107
-499 -326 -12 -9 -13 -7 -6 9 25 61 57 189 66 271 10 87 1 230 -17 279 -5 13
59 15 510 15 509 0 516 0 516 -20z m-2192 -1012 l-3 -131 -33 -11 c-48 -16
-99 -61 -123 -109 -24 -45 -36 -144 -25 -202 23 -121 219 -200 437 -175 180
20 269 84 269 190 0 61 -33 90 -102 90 -29 0 -68 -4 -86 -9 l-33 -10 3 87 3
87 75 18 c104 25 249 27 322 4 109 -33 167 -111 168 -222 0 -169 -171 -330
-437 -412 -80 -24 -103 -27 -248 -27 -149 0 -166 2 -245 28 -251 83 -373 204
-401 399 -21 140 24 267 130 375 68 69 130 108 221 139 116 40 111 44 108
-109z m2 -397 c0 -74 -2 -81 -26 -100 -36 -28 -48 -27 -78 10 -43 50 -35 79
32 127 31 23 60 41 65 42 4 0 7 -36 7 -79z m-301 -364 c6 -8 46 -30 90 -51
l78 -37 7 -54 c10 -84 42 -159 90 -208 67 -70 132 -94 320 -122 90 -13 186
-29 212 -36 117 -28 213 -97 217 -155 3 -41 -29 -43 -77 -5 -42 34 -52 36
-216 51 -312 29 -444 59 -555 125 -133 80 -196 172 -203 296 -5 87 5 209 18
209 4 0 13 -6 19 -13z m541 -268 l0 -141 -47 7 c-27 4 -67 15 -90 25 l-43 19
0 115 0 116 90 0 90 0 0 -141z m-110 -373 c19 -3 51 -8 72 -11 l36 -6 4 -100
c3 -100 3 -101 36 -129 34 -28 88 -47 237 -80 50 -11 126 -38 170 -59 72 -35
92 -40 204 -51 120 -11 195 -31 247 -65 13 -8 24 -20 24 -25 0 -7 -359 -10
-1010 -10 -651 0 -1010 3 -1010 10 0 5 11 17 24 25 54 35 129 55 249 66 111 9
129 14 202 49 44 22 121 49 170 60 146 32 202 51 237 80 l33 28 3 116 c3 103
6 116 20 112 10 -3 33 -7 52 -10z"/>
</g>
</svg>
